<svg width="26" height="26" viewBox="0 0 26 26" fill="none" xmlns="http://www.w3.org/2000/svg">
<path d="M9.75 3.25H4.33333C3.73502 3.25 3.25 3.73502 3.25 4.33333V9.75C3.25 10.3483 3.73502 10.8333 4.33333 10.8333H9.75C10.3483 10.8333 10.8333 10.3483 10.8333 9.75V4.33333C10.8333 3.73502 10.3483 3.25 9.75 3.25Z" stroke="black" stroke-width="2.16667" stroke-linecap="round" stroke-linejoin="round"/>
<path d="M21.6667 15.1665H16.25C15.6517 15.1665 15.1667 15.6515 15.1667 16.2498V21.6665C15.1667 22.2648 15.6517 22.7498 16.25 22.7498H21.6667C22.265 22.7498 22.75 22.2648 22.75 21.6665V16.2498C22.75 15.6515 22.265 15.1665 21.6667 15.1665Z" stroke="black" stroke-width="2.16667" stroke-linecap="round" stroke-linejoin="round"/>
<path d="M9.75 15.1665H4.33333C3.73502 15.1665 3.25 15.6515 3.25 16.2498V21.6665C3.25 22.2648 3.73502 22.7498 4.33333 22.7498H9.75C10.3483 22.7498 10.8333 22.2648 10.8333 21.6665V16.2498C10.8333 15.6515 10.3483 15.1665 9.75 15.1665Z" stroke="black" stroke-width="2.16667" stroke-linecap="round" stroke-linejoin="round"/>
<path d="M15 7C15 4.79086 16.7909 3 19 3H20V8H15V7Z" fill="#F88E55"/>
<path d="M19 3H21C22.1046 3 23 3.89543 23 5V8H19V3Z" fill="#568203"/>
<path d="M15 7H23V9C23 10.1046 22.1046 11 21 11H17C15.8954 11 15 10.1046 15 9V7Z" fill="#DFDFDF"/>
<path fill-rule="evenodd" clip-rule="evenodd" d="M18.9583 11.9165C21.6507 11.9165 23.8333 9.73389 23.8333 7.0415C23.8333 4.34912 21.6507 2.1665 18.9583 2.1665C16.266 2.1665 14.0833 4.34912 14.0833 7.0415C14.0833 9.73389 16.266 11.9165 18.9583 11.9165ZM19 9.94021C20.6239 9.94021 21.9403 8.62379 21.9403 6.99991C21.9403 5.37603 20.6239 4.05961 19 4.05961C17.3761 4.05961 16.0597 5.37603 16.0597 6.99991C16.0597 8.62379 17.3761 9.94021 19 9.94021Z" fill="black"/>
</svg>
