<svg width="53" height="53" viewBox="0 0 53 53" fill="none" xmlns="http://www.w3.org/2000/svg">
<path d="M41.4892 4.77945H11.2575C7.68586 4.77945 4.7793 7.68601 4.7793 11.2577V17.371C4.7793 19.6448 5.60419 21.7114 6.9387 23.3007V43.6488C6.9387 44.2215 7.16621 44.7708 7.57118 45.1757C7.97615 45.5807 8.5254 45.8082 9.09811 45.8082H26.3734C26.9461 45.8082 27.4953 45.5807 27.9003 45.1757C28.3053 44.7708 28.5328 44.2215 28.5328 43.6488V32.8518H37.1704V43.6488C37.1704 44.2215 37.3979 44.7708 37.8029 45.1757C38.2079 45.5807 38.7571 45.8082 39.3298 45.8082H43.6486C44.2213 45.8082 44.7706 45.5807 45.1756 45.1757C45.5805 44.7708 45.808 44.2215 45.808 43.6488V23.2985C47.1426 21.7114 47.9675 19.6448 47.9675 17.3688V11.2577C47.9675 7.68601 45.0609 4.77945 41.4892 4.77945ZM43.6486 11.2577V17.371C43.6486 19.8327 41.8153 21.9316 39.5652 22.0504L39.3298 22.0547C36.948 22.0547 35.011 20.1177 35.011 17.7359V9.09827H41.4892C42.6812 9.09827 43.6486 10.0678 43.6486 11.2577ZM22.0546 17.7359V9.09827H30.6922V17.7359C30.6922 20.1177 28.7552 22.0547 26.3734 22.0547C23.9915 22.0547 22.0546 20.1177 22.0546 17.7359ZM9.09811 11.2577C9.09811 10.0678 10.0655 9.09827 11.2575 9.09827H17.7357V17.7359C17.7357 20.1177 15.7988 22.0547 13.4169 22.0547L13.1816 22.0482C10.9314 21.9316 9.09811 19.8327 9.09811 17.371V11.2577ZM22.0546 35.0112H13.4169V28.5329H22.0546V35.0112Z" fill="url(#paint0_linear_426_1373)"/>
<defs>
<linearGradient id="paint0_linear_426_1373" x1="26.3734" y1="4.77945" x2="26.3734" y2="45.8082" gradientUnits="userSpaceOnUse">
<stop stop-color="#EA9769"/>
<stop offset="1" stop-color="#EA6969"/>
</linearGradient>
</defs>
</svg>
