<?xml version="1.0" encoding="utf-8"?>
<!-- Generator: Adobe Illustrator 28.1.0, SVG Export Plug-In . SVG Version: 6.00 Build 0)  -->
<svg version="1.1" id="Calque_2_Image" xmlns="http://www.w3.org/2000/svg" xmlns:xlink="http://www.w3.org/1999/xlink" x="0px"
	 y="0px" viewBox="0 0 423.4 328.7" style="enable-background:new 0 0 423.4 328.7;" xml:space="preserve">
<style type="text/css">
	.st0{fill:#8A0003;}
	.st1{fill:#FCFCE3;}
	.st2{fill:#FEFE01;}
	.st3{fill:#B9C14F;}
	.st4{fill:#586B0F;}
	.st5{fill:#15191B;}
	.st6{fill:#FB8E04;}
	.st7{fill:#13171A;}
	.st8{fill:#FD6613;}
	.st9{fill:#F64A39;}
	.st10{fill:#FFFFFF;}
	.st11{fill:#F5611F;}
	.st12{fill:#FBE16F;}
	.st13{fill:#DF4306;}
	.st14{fill:#9BBC1F;}
	.st15{fill:#5B6F12;}
	.st16{fill:#E7DFA9;}
	.st17{fill:#F8F7E1;}
	.st18{fill:#FEE4D7;}
	.st19{fill:#FCF6F4;}
</style>
<polygon class="st0" points="304.8,31.1 314.9,21.9 327.6,27.4 331.5,33.4 332.8,36.9 320.4,47.2 "/>
<path class="st1" d="M50.7,119c0,0,5.5,28.8,6.7,30s31.6,12,33,11.8c1.4-0.3,29.9-3.9,29.9-3.9l5.4-3.8l31-17.2
	c0,0,12.8-3.7,12.8-4.1s1.9-14.1,1-16s-11.7-11.5-13.7-12.8c-1.9-1.3-16.4-6.2-16.4-6.2l-8.4,0.9l-12.1-4.6l-12.8-5.5l-12.2,0.7
	L50.7,119z"/>
<polygon class="st2" points="327,184.7 349.4,165.6 344,139 342.6,113.1 337.7,112.9 321.6,133.1 "/>
<polygon class="st3" points="347.3,60 365.6,44.5 380.1,52.6 382.7,61.3 368,73.1 "/>
<polygon class="st4" points="261.8,237 285.9,217.1 280.4,175.3 265.3,172 "/>
<path class="st5" d="M346.1,0c4.3,2.2,8.3,4.8,9.2,10.2c0.7,4.3-0.2,8-3.5,10.8c-6.7,5.7-13.5,11.4-20.3,17.1c-1.2,1-1.6,1-2.3-0.6
	c-2.5-6.4-7.1-11-13.3-14c-2.3-1.1-0.9-1.6,0-2.5c7.6-6.7,14.5-14.3,23.1-20c0.2-0.1,0.2-0.7,0.3-1C341.6,0,343.9,0,346.1,0L346.1,0
	z"/>
<path class="st6" d="M241.2,101.2c0,0-16,11.9-16.6,13.1c-0.6,1.2,3.2,21,4.2,23.2c1,2.1,17,11.2,22.8,12.3
	c5.8,1.1,28.6,3.9,28.6,3.9s24.1-1.2,25.3-1.3c1.2-0.1,14.6-4,15.4-4.6c0.8-0.6,4.1-4.6,4.1-4.6l3-5.3l3.2-6.1l6.9-17.2l-6.6-12.8
	c0,0-13.3-5-15.7-6.6c-2.3-1.6-17.6-8.8-18.9-9.3s-14.8-2.7-15.8-2.5c-1,0.2-21.8,6.4-24.3,7.8"/>
<path class="st7" d="M268.5,65.5c8.7-7.8,17.4-15.6,26-23.5c1.7-1.6,3.2-1.9,5.4-1.2c3.1,1,5.7,2.5,7.7,5c4.1,5.4,3.9,8.2-1.2,12.5
	c-6.1,5.1-12.2,10.2-18.4,15.3c-0.5,0.4-1,0.9-2.1,2c10.7-0.8,19.2,3.1,27.3,8c2,1.2,3.6,1.2,5.5-0.4c11.3-9.3,22.9-18.4,34.2-27.8
	c2.5-2.1,4.9-2.2,7.5-1.3c6.1,2.3,10.2,6.4,11.4,13.1c0.3,1.7,0,2.7-1.4,3.8c-9.3,8.4-19.3,16.1-28.9,24.2c-0.5,0.4-0.9,0.8-1.6,1.3
	c3.7,2.2,7.5,3.8,10.3,6.8c4,4.3,6.2,9.2,6.2,15.1c0,12.8-0.1,25.7,0,38.5c0,1.9-0.5,3.4-1.9,4.5c-4.4,3.6-8.8,7.2-13.3,10.7
	c-1.1-1-0.7-2.1-0.7-3c0-14.8-0.2-29.7,0-44.5c0.1-7.3-3-12.4-9.3-15.7c-10.8-5.6-21.5-11.4-32.5-16.7c-11.4-5.5-22.7-4.6-33.6,1.6
	c-9.8,5.7-19.4,11.5-29,17.6c-9.9,6.3-9.4,15.9,0.9,21.5c9.6,5.2,19.1,10.6,28.9,15.6c13.3,6.8,26.6,6.1,39.5-1.3
	c8-4.6,15.8-9.5,23.6-14.3c2.4-1.5,3.5-1.7,3.5,1.9c-0.2,13.6-0.2,27.2-0.1,40.8c0,3.2-1,5.4-3.7,7.4
	c-16.3,12.7-32.4,25.6-48.6,38.4c-0.7,0.5-1.4,1.1-2.1,1.6c-1.9,1.4-2.6,0.9-2.5-1.4c0.1-8.9-0.3-17.7,0.1-26.6
	c0.3-6.8-2.6-11.6-7.7-16.1c-0.7,6.7-0.5,13-0.5,19.3c0,10.1-0.2,20.2,0,30.3c0,2.9-0.9,4.7-3.3,6.4c-12.6,9.5-25.2,18.9-38.6,27.5
	c-16.4,10.5-33.1,10.9-50.2,2.2c-12.1-6.1-24-12.6-36.1-18.7c-9-4.5-13.1-11.1-12.7-21.4c0.7-16.7,0.4-33.4,0.1-50.1
	c-0.2-10.6,4.2-18.2,13.5-23c2.8-1.4,4.3-3.1,3.7-6.3c-0.4-1.7,0.4-2.7,2-3.5c4.6-2.5,9.1-5.1,13.6-7.7c9.9-5.6,10.3-16.1,0.5-21.8
	c-8.3-4.9-17.1-9.2-25.7-13.6c-3-1.5-4.5-3.2-4.2-6.7c0.4-4.6,0-9.2-0.1-13.8c0-0.8,0.1-2-0.4-2.5c-4.7-5-1.6-9.7,0.6-14.2
	c1.9-3.9,5.4-6.5,9.1-8.7c11.3-6.8,22.5-13.7,33.9-20.4c15.7-9.3,31.5-9,47.4-0.2c10.7,6,21.6,11.7,32.5,17.4
	C262.6,54.2,264.7,56.2,268.5,65.5L268.5,65.5z M197.5,105.4c6.5,0,11.8-0.4,16.4-3.1c11-6.3,22-12.6,32.7-19.3
	c6-3.7,7.3-11.2,3.5-16.6c-1.6-2.3-4.1-3.6-6.5-4.9c-10.5-5.7-21-11.2-31.4-17c-10.5-5.8-20.8-5.8-31,0.5c-9.8,6-19.8,11.9-29.6,18
	c-10.3,6.5-10,16.8,0.7,22.7c9.1,5,18.5,9.7,27.5,14.8C185.7,103.9,192,105.3,197.5,105.4L197.5,105.4z M198.7,139
	c-7.1,0-12.3,1.1-17,3.9c-10.6,6.3-21.1,12.7-31.6,19.1c-2.8,1.7-4.9,4.1-5.9,7.4c-1.9,6.3,0.9,12.1,8.1,16.1
	c9.3,5.2,18.6,10.5,28.2,15.3c12.5,6.2,25.2,5.9,37.4-1.2c8.9-5.2,17.8-10.5,26.6-15.8c10.9-6.6,10.8-18.1-0.4-24.4
	c-10.3-5.8-20.8-11.1-31.2-16.7C207.9,139.9,202.6,139,198.7,139L198.7,139z"/>
<polygon class="st0" points="292.8,43.5 304.5,31.5 319.3,48 306.4,58.2 "/>
<path class="st5" d="M399.3,141.1c2.9-2.4,5.8-4.9,8.8-7.2c4.8-3.7,10.3-3.1,13.5,1.2c3.2,4.2,2.1,9.9-2.4,13.5
	c-35.8,29.1-71.7,58.1-107.3,87.5c-10.3,8.5-18.4,19.3-27.3,29.1c-18.3,20.1-36.6,40.4-54.9,60.6c-3,3.3-5.8,3.8-8.5,1.6
	c-2.9-2.3-3.2-5.8-0.4-9.2c4.6-5.7,9.3-11.2,14-16.8c0.7-0.8,1.5-1.5,1.7-3.4c-6.7,5.7-12.9,10.9-19.2,16.1c-2.4,2-4.9,3.7-8,1.5
	c-3.2-2.3-3.4-6.4-0.2-9.3c7.5-6.9,15.2-13.7,22.9-20.4c20.6-17.9,41.4-35.6,61.9-53.6c9.8-8.6,17.5-19.1,26-28.9
	c23.6-27,47-54.2,70.6-81.3c1-1.1,2-2.2,3.1-3.2c3.9-3.7,9.5-3.9,13.1-0.5c3.8,3.6,4,9.7,0.2,13.8c-2.6,2.8-5,5.8-8.1,8.1
	L399.3,141.1L399.3,141.1z"/>
<path class="st7" d="M126.2,152.6c-0.4,0.9-0.6,1.5-1,1.9c-4.8,5.4-6.5,11.9-6.5,19c-0.1,14.5-0.1,28.9,0,43.4
	c0,2.9-0.4,3.9-3.7,4.1c-9.7,0.5-18.8-1.1-27.5-5.5c-12.6-6.5-25.2-13-37.8-19.6c-5.8-3-8.9-7.9-8.9-14.5c0-19.2,0-38.4,0-57.6
	c0-8,3.6-14.2,10.2-18.4c13.6-8.5,27-17.3,41.1-25c8.6-4.7,17.9-5.6,27.5-3.7c1.6,0.3,2.4,0.7,2.4,2.5c-0.2,3.9-0.1,7.7-0.1,11.6
	c0,2-0.6,2-2.4,1.6c-9.5-2.2-18.5-0.8-26.8,4.4c-8.4,5.3-17,10.3-25.4,15.5c-1.4,0.8-2.7,1.8-4,2.8c-6.7,5.6-6.6,14.1,0.5,19.3
	c6.4,4.7,13.9,7.8,20.8,11.6c5.1,2.8,10,6,15.9,7.2C109.2,155,117.5,154.6,126.2,152.6L126.2,152.6z"/>
<path class="st5" d="M208.3,284.5c-3.3,2.3-7,4.2-9.9,7c-7.6,7.5-16.2,7.4-26,5.4c-23.3-4.8-45.5-12.3-66.9-22.5
	c-29.1-13.9-57.3-29.4-85.7-44.6c-5.2-2.8-9.9-6.3-13.5-11c-9.4-12.4-8.3-29.7,2.7-40.9c5.9-6,13.1-10.3,20.5-14.2
	c2.4-1.3,3-0.6,2.8,1.9c-0.2,4.1-0.2,8.2-0.1,12.3c0,2-0.6,3.2-2.4,4.1c-2.1,1.1-4.1,2.3-6,3.8c-9.9,7.9-9.2,19.2,1.7,25.6
	c7.1,4.1,14.4,7.8,21.7,11.6c25.7,13.2,51.1,27.2,77.2,39.8c20.3,9.8,41.4,16.6,63.6,20.3C194.6,284.2,201.3,284.6,208.3,284.5
	L208.3,284.5z"/>
<path class="st5" d="M280.9,276.3c7.7-6.4,15.5-12.8,23.1-19.2c16.9-14.1,34.1-27.9,51.6-41.2c3.9-2.9,7.9-5.6,11.7-8.7
	c6.6-5.4,11.6-12.4,18.3-17.7c2.4-1.9,3.2-2.4,4.1,1.1c3.4,12.7-0.4,25.2-12,33.1c-29.9,20.4-60.6,39.6-94.6,52.9
	c-0.5,0.2-1.2,0.3-1.7,0.4C281.2,276.8,281,276.5,280.9,276.3L280.9,276.3z"/>
<path class="st5" d="M362.5,47.5c7.2-7,14.7-13.1,22.3-19c4.9-3.8,12.2-2,16.1,3.3c3.9,5.3,3.2,11.6-1.8,15.9
	c-6.2,5.2-12.5,10.2-18.6,15.5c-1.5,1.3-2,1.2-2.8-0.7C375,55.4,369.8,50.7,362.5,47.5L362.5,47.5z"/>
<path class="st5" d="M302.1,34.1c4.9-5.8,6.6-6.5,11.4-4.4c5.5,2.4,10.6,9.2,9.6,13.8c-0.6,2.8-3.6,3.9-5.6,5.6
	c-0.6,0.5-1-0.4-1.3-0.9C312.6,41.6,307.9,36.9,302.1,34.1z"/>
<path class="st8" d="M183.8,70.1c0.1,3.5-2.5,6.2-5.9,6.3c-3.3,0.1-6-2.6-6-5.7c0-3.6,2.4-6,6.1-6.1
	C181.1,64.6,183.8,67.1,183.8,70.1L183.8,70.1z"/>
<path class="st8" d="M209.8,70.3c0-3.6,2.2-6.1,5.5-6.1c3.3,0,5.9,2.6,5.9,5.8c0,3.5-2.7,6.2-6.1,6.2
	C212,76.2,209.8,73.7,209.8,70.3L209.8,70.3z"/>
<path class="st8" d="M197.2,76.1c3.3,0.1,5.9,2.8,5.8,6c-0.1,3.3-2.8,5.8-6.1,5.7c-3.5-0.1-5.8-2.5-5.6-6
	C191.4,78.2,193.6,76.1,197.2,76.1z"/>
<path class="st8" d="M196.7,66.4c-3.3-0.1-5.7-2.7-5.6-6c0.1-3.3,2.6-5.8,5.9-5.8c3.3,0,5.7,2.6,5.6,6
	C202.5,63.7,199.8,66.4,196.7,66.4L196.7,66.4z"/>
<path class="st9" d="M196.5,184.2c-2.2,0-4.4-0.2-6.6-0.8c-2.4-0.6-4.8-1.6-7-3.2c-6.6-4.6-6.6-12.8-0.1-17.5
	c7.3-5.3,22.3-5.4,29.8-0.2c6.7,4.6,6.6,13.2-0.3,17.7C207.8,183.3,202.6,184.4,196.5,184.2L196.5,184.2z"/>
<path class="st10" d="M189.9,183.5c0,0-0.2-10.1-4.1-22.4c0,0,1.1-0.5,2.3-0.9c0,0,4.7,22,3.9,23.3l-0.2,0.4
	C191.8,183.9,191,183.7,189.9,183.5z"/>
<path class="st10" d="M210.3,161.2c0,0-4.8,14.3-4.7,22.1c0,0,1.5-0.4,2.3-0.8c0,0,2.9-18.9,4.2-20.4
	C212.1,162.1,210.5,161.2,210.3,161.2z"/>
<path class="st10" d="M202.5,159c0,0-5.8,15.2-5.9,25.2c0,0,1.6,0,1.8,0c0,0,4.4-23.7,5.6-25C204,159.3,202.7,159,202.5,159z"/>
<path class="st11" d="M306.3,100.8c0.9,0,1.7,0.2,2.8-1.4c1.1-1.6,0.2-2.5,2.2-2.6c1.9-0.1,4-1.1,3.5,1c-0.5,2,0.1,2.3-1.1,4
	c-1.1,1.7-1.5,2.8-3.1,2.1C308.9,103.2,306.3,100.8,306.3,100.8z"/>
<path class="st12" d="M118.3,133.4c-0.5,0-1.1-0.1-1.5,0.1c-17,8.4-32.5-0.4-48.5-4.4c-1.4-0.3-2.8-1.4-3-3.1
	c-0.2-1.9,1.6-2.2,2.7-3.2c4.5-3.9,10.2-3.3,15.5-4.2c2,2,4.8,0.8,7.1,1.9c5.9,1.7,11.9,0.4,17.8,0.8c5.4,0.4,10.9-0.5,16.2,1.3
	c0.8,2.2,5.2,3.8,0.9,6.7C123.5,131.3,120.6,131.9,118.3,133.4z"/>
<path class="st13" d="M124.6,122.5c-5.3-1.8-10.8-0.9-16.2-1.3c-5.9-1.9-11.9-0.6-17.8-0.8c-2.3-1-5.1,0.1-7.1-1.9
	c-2.5-1.2-7.4-0.9-3.7-5.9c3.6,3.7,8.7,2.6,13.1,3.7c2.4,0.6,3-2.6,4.8-3.7c6.6-3.9,11.6-10.8,20.3-10.7c1.4,0.1,2.9,0.3,4.3,0.4
	c-0.9,1.6-2.6,1.9-4,2.7c-6.3,3.3-13,6.1-18.4,11.7c11.2,1.3,12.7,0.8,20.3-3.6c6-3.5,12.3-6.5,19.5-7c0.9,0.1,1.8,0.2,2.7,0.4
	c-2.4,2.7-6.1,2.2-9.1,3.6c-5.1,2.3-10.7,3.8-15.2,7.4c7.6,3,14,0.6,20.2-3c3.4-2,7.1-3.6,10.6-5.4c2.6,0.7,1.5,2,0.5,3.3
	c-1.4,0.7-1.7,2.9-3.6,2.9c-2.4-0.2-3.9,1.6-5.8,2.5C135,120,130.5,123.3,124.6,122.5z"/>
<path class="st14" d="M145.7,115.3c2,0,2.2-2.2,3.6-2.9c0.4,0.2,0.8,0.3,1.2,0.5c0.4,0.9,0.7,1.7,2,1.4c0,0,0,0,0,0
	c0.4,4.4-1.6,7.5-4.8,10.4c-6.8,6-14.9,9.3-23.7,10.6c-2.1,0.3-4.4,2.1-6.6,0.1c0.3-0.6,0.6-1.2,0.9-1.9c2.3-1.5,5.2-2.1,7.2-4.2
	c1.2,0.4,2.2,0.1,3.3-0.6C134.9,124.8,140.8,120.6,145.7,115.3z"/>
<path class="st11" d="M139.6,106.2c-7.1,0.5-13.5,3.5-19.5,7c-7.5,4.4-9.1,4.9-20.3,3.6c5.4-5.5,12.1-8.3,18.4-11.7
	c1.5-0.8,3.2-1.1,4-2.7C128.1,103.5,134,104.4,139.6,106.2z"/>
<path class="st11" d="M273.5,91.6c1-1.6,1.1-1.7,1.8-2.1c0.4-0.3,2.4-0.6,2.5-0.4c0,0.5,0.8,1.3-0.2,1.6c-0.9,0.3-0.2,2.9-1.8,2.9
	C274.3,93.8,273.5,91.6,273.5,91.6z"/>
<path class="st11" d="M118,102.1c-8.7-0.1-13.7,6.7-20.3,10.7c-1.8,1.1-2.4,4.3-4.8,3.7c-4.4-1.2-9.5,0-13.1-3.7
	c10.7-5.9,21.4-12,34.4-11.4C115.5,101.4,116.8,101.2,118,102.1z"/>
<path class="st11" d="M276.6,93.1c3.2-1.4,3.4-1,3.8-2c0.4-1-1.1-1.3-0.1-2.2c0.4-0.4,1-0.2,1.5-0.3c0.7-0.1,1.5-0.3,2.5,0
	c0.3,0.1,0.6,0,1,0c1.2,0,2.3-0.4,2.6,0.3c0.4,0.9,0.8,1.2,0.4,1.7c-0.4,0.5-1.2,2.5-1.4,3.1c-0.3,0.6,0.4,0.9-1.1,1.4
	c-1.5,0.5-2.2,1.8-4,0.7C280,94.7,276.6,93.1,276.6,93.1z"/>
<path class="st11" d="M265.6,98.5c0,0,1.1-1.1,1.3-1.6s0.6-0.8,0.7-2c0.1-1.2,0-1.3,0-2.2c0-0.4,0.8-0.5,1.6-0.9s1.5-0.8,1.8-0.3
	c0.6,1,1,1.3,1.6,2.2c0.6,0.9,1,2.6,1,3.4c0,0.8-0.2,2.5-1.1,3c-0.9,0.5-2.5,0.9-3.8,0.7C267.3,100.6,265.6,98.5,265.6,98.5z"/>
<path class="st11" d="M275.1,144.1c1.2,0.6,6.3,2.4,6.3,3.6c0,1.2,2.3,1,5.1,0c2.8-1,10.2-2,11.6-1.8c1.4,0.2,5.2,1,6.6,0.5
	c0.3-0.1,1.1,0.6,0.9,1c-0.3,0.5-2,0.9-3.2,1.7c-1.4,0.8-3.3,1.6-4.8,2.1c-1.1,0.4-2,0.5-2.4,0.7c-0.5,0.2-3.4,0.8-6.1,1.2
	c-1.6,0.2-2.9,0.2-4.1,0.3c-0.7,0-1.2-0.1-1.8-0.1c-0.4,0-0.8,0-1.2-0.1c-0.1,0-0.3,0-0.4,0c-0.1,0-0.3-0.1-0.4-0.1
	c-0.3,0-1.2-0.1-2.1-0.2c-0.5-0.1-1.1-0.1-1.3-0.3c0,0-0.1,0-0.1,0c-0.1,0-0.2,0-0.3-0.1c-0.3-0.1-0.6-0.1-0.9-0.2
	c-0.7-0.1-1.5-0.4-2.3-0.6c-2.2-0.5-4.5-1.4-6.2-2.4c-0.4-0.2-0.8-0.4-1.2-0.6c-0.3-0.1-0.5-0.4-0.8-0.4c-2-0.1-3.2-2-4.5-2.3
	c-1.1-0.3-2.8-1.4-1.8-1.8C261.8,143.1,275.1,144.1,275.1,144.1z"/>
<path class="st15" d="M117.4,135.3c2.2,2.1,4.5,0.2,6.6-0.1c8.8-1.3,16.9-4.5,23.7-10.6c3.2-2.8,5.1-6,4.8-10.4
	c3.9,4.3,4.2,7.2,0.5,11c-9.2,9.7-21,13.2-34,13.4c-1.3,0-3.3,0.3-3.8-1.6C114.8,135.6,116.1,135.2,117.4,135.3z"/>
<path class="st11" d="M148.8,109.1c-3.5,1.8-7.2,3.4-10.6,5.4c-6.2,3.6-12.5,6-20.2,3c4.6-3.6,10.1-5.1,15.2-7.4
	c3-1.3,6.6-0.9,9.1-3.6C144.5,107.3,146.9,107.4,148.8,109.1z"/>
<path class="st16" d="M160.2,125.7c1,0.1,2.4-0.2,2.8,1.3c0.3,0.9-0.4,1.7-1.3,1.8c-1.1,0.1-2.5,0.2-2.9-1.2
	C158.5,126.7,159.2,126,160.2,125.7z"/>
<path class="st16" d="M111.9,150c0.9-0.5,1.9-1.4,3.1-0.5c0.7,0.6,0.6,1.6-0.1,2.2c-0.9,0.7-2,1.5-3.1,0.6
	C111.1,151.7,111.3,150.8,111.9,150z"/>
<path class="st16" d="M77,136.6c0.9-0.5,1.9-1.4,3.1-0.5c0.7,0.6,0.6,1.6-0.1,2.2c-0.9,0.7-2,1.5-3.1,0.6
	C76.1,138.3,76.3,137.4,77,136.6z"/>
<path class="st16" d="M125.3,143.8c0.9-0.6,1.8-1.7,3-0.8c0.7,0.5,0.8,1.5,0.1,2.2c-0.8,0.8-1.8,1.7-3,0.9
	C124.7,145.6,124.8,144.7,125.3,143.8z"/>
<path class="st16" d="M93.7,143.9c0.1,1,0.7,2.3-0.6,3c-0.8,0.4-1.7,0-2-0.9c-0.4-1.1-0.8-2.4,0.5-3.1
	C92.4,142.6,93.2,143.1,93.7,143.9z"/>
<path class="st16" d="M105.5,141.3c-0.5,0.9-0.7,2.3-2.2,2.2c-0.9-0.1-1.4-0.9-1.2-1.8c0.3-1.1,0.7-2.4,2.1-2.3
	C105.1,139.5,105.5,140.3,105.5,141.3z"/>
<path class="st16" d="M74.2,113.5c1,0.3,2.4,0.4,2.5,1.9c0,0.9-0.7,1.6-1.7,1.4c-1.1-0.1-2.5-0.4-2.5-1.8
	C72.4,114.1,73.2,113.6,74.2,113.5z"/>
<path class="st16" d="M89.2,103.2c0.8-0.7,1.6-1.8,2.9-1.1c0.8,0.4,1,1.4,0.4,2.2c-0.7,0.9-1.6,1.9-2.9,1.2
	C88.7,105,88.7,104.1,89.2,103.2z"/>
<path class="st16" d="M107.7,96.9c0.8,0.7,2,1.3,1.5,2.7c-0.3,0.8-1.3,1.1-2.1,0.7c-1-0.6-2.1-1.3-1.6-2.7
	C105.8,96.7,106.7,96.6,107.7,96.9z"/>
<path class="st16" d="M124.4,96.4c1,0,2.4-0.4,2.9,1c0.3,0.8-0.2,1.7-1.1,1.9c-1.1,0.2-2.4,0.5-3-0.9
	C122.9,97.6,123.4,96.8,124.4,96.4z"/>
<path class="st15" d="M152.5,114.2c-1.2,0.3-1.6-0.5-2-1.4C151.8,112.4,152.5,112.9,152.5,114.2z"/>
<g>
	<path class="st11" d="M255.6,137.7c-3.2,0.1-2.6-3-4-4.9c-1.5,1.4-2.1,6.5-5.4,1.9c0.1-1,0-2.9,0.5-3c2.1-0.6,2.5-1.8,1.2-3.3
		c-1.3-1.6-2.3-4.4-5.4-2.7c-2.3-0.4-3.9,0.9-5.4,2.4c-0.1-0.1-0.3-0.2-0.4-0.4c0-0.6,0.1-1.2,0.1-1.8l0,0c0.3-0.3,0.6-0.6,1-1l0,0
		c2.4-0.1,3-1.6,2.9-3.7c0.6-2.3-1.8-3.7-1.9-5.8c0.6,0.2,1.2,0.3,1.8,0.6c1.2,0.6,2.4,2.5,3.5,1.3c1.3-1.3-0.3-2.8-1.2-4.1
		c-0.5-0.6-1-1.1-1.5-1.7c1.1-2.5-0.4-3-2.2-2.5c-2,0.6-4,2-3.3,4.4c0.6,2.3,1.9,0.5,2.8,0c0,0.7,0.1,1.4,0.1,2
		c-1.3,0.2-2.7-0.4-3.8,0.8c-2.2-0.3-3.8,1-5.3,2.4c-0.2-0.2-0.4-0.4-0.6-0.5c3.1-3.3,6-6.7,7.9-10.8c4.9-1,8.1-5.4,13.3-6.3
		c2.7-0.4,2.4-5,5.7-5.5c0,0.3,0,0.7,0,1c-0.9,1.9-4.5,3.5-0.5,5.9c0.7,1,1.3,2.9,2.1,3c4.4,0.6,4.2,4.7,6.1,7.2
		c-1.6-1-3.1-2.4-5.2-1.7c-0.2,0.1-0.4,0.1-0.4-0.2c-1.4-1.1-1.7-2.7-2.3-4.3c-1-2.8-2.7-4.9-6.2-3.5c-5.1,1.4-6.1,2.8-4.4,6.6
		c-0.7,0.4-1.4,1-0.8,1.9c1.6,2.5,3.2,4.1,6.2,1.3c3.2-3,3.4-2.8,4.7-1.7c-3.7,4-3.7,4.3-0.1,5.4c0.3,0.7,0.7,1.3,1,2
		c-1.6,0.6-3.1-1.7-4.8-0.1c-1.7-0.3-3.4-0.2-4.6,1.3c-1.3,1.7-3,3.6,0.8,4.4c1,1.3,1.9,2.6,2.9,3.9c1.7,4,3.3-0.1,5,0
		c-0.7,1.5-0.9,3.1-0.3,4.7C252.4,134.7,255.6,135.9,255.6,137.7z"/>
	<path class="st13" d="M263.3,112.7c-1.8-2.5-1.7-6.7-6.1-7.2c-0.8-0.1-1.4-1.9-2.1-3c1-2.3,3.3-3.3,5-4.8c-1.4-1.8-3-1.3-4.5-1.1
		c0-0.3,0-0.7,0-1c3.7-2,6.9-1.2,9.7,1.8c1.3,1.4,2.3,2.9,4.5,2.7c0.4,0.9,1.1,1.1,2,1.1l0,0c0.3,1.9,1.3,3.7,1,5.7
		c-2.6,1.8-5.4,3.4-6.6,6.6C265.3,113.3,264.3,113,263.3,112.7L263.3,112.7z M263.4,108c0.9-1.1,2-2.4,3.2-3.5
		c0.6-0.6,2-0.7,1.5-1.8c-0.5-1-1.7-1.5-2.8-1.1c-1.9,0.8-3.6,1.9-3.8,4.3C261.5,106.7,261.8,107.7,263.4,108z"/>
	<path class="st13" d="M274.8,93.7c2.2-1.8,4.4-1.2,6.6,0.1c0.6,0.3,1.3,0.5,1.9,0.8c0,0,0,0,0,0c0.3,0.3,0.7,0.6,1,1c0,0,0,0,0,0
		c0.1,5.2-4.3,7.3-7.5,9.8c-1.7,1.3-2.3-3.2-4.5-3.8c-0.1,0-0.3-0.1-0.4-0.2c0,0,0,0,0,0c0-1.5,0.1-3,0.1-4.5c0,0-0.1-0.4-0.1-0.4
		c1.7,3.9,1.7,3.9,5.3,0.9c0.8-0.6,2.3-0.5,2.3-2.2C278.2,94,276,95.2,274.8,93.7z"/>
	<path class="st11" d="M271.9,101.3c0.1,0.1,0.3,0.2,0.4,0.2c2.1,0.7,2.8,5.1,4.5,3.8c3.2-2.5,7.6-4.6,7.5-9.8
		c1.6,0.3,1.7,1.8,2.2,2.9c0,2.5,0.9,4.2,3.6,4.3c-1,0.5-2.3,0.3-3,1.4c-3.5-0.2-6.4,0.2-6,4.8c-2.8-0.4-5.5,0.7-8.2,1
		c0-1,0-1.9,0-2.9C273.2,105,272.1,103.2,271.9,101.3z"/>
	<path class="st13" d="M291.5,99.6c2.5-0.7,0.8,4.2,2.8,2.6c1.9-1.6,5.3-2.2,5.1-5.7c1.1-1.3,2.6-0.6,4-0.9l-0.1,0
		c0.6,2,1.2,3.9,1.8,5.9c-1.2-0.1-1.9,0.4-2,1.7c-0.3,0.4-0.5,0.7-0.8,1.1c-0.3,0.3-0.6,0.6-0.9,1c-1.4-0.1-2.3,0.7-3.1,1.8
		c-1.9,0.1-3.8,0.2-4.5-2.1c-0.5-1.7-2.1-1.5-3.4-2C290.7,101.7,291.1,100.7,291.5,99.6z"/>
	<path class="st17" d="M274.8,93.7c1.2,1.5,3.3,0.3,4.6,1.5c0,1.7-1.5,1.6-2.3,2.2c-3.6,3-3.6,3-5.3-0.9
		C272.1,94.7,273.1,93.8,274.8,93.7z"/>
	<path class="st11" d="M303.4,95.5c-1.3,0.3-2.9-0.4-4,0.9c-1.6-0.6-3.2-0.2-4.9,0.4c0.4-1.6,1.3-1.9,2.1-2.4
		c1.6-0.3,3.1-0.6,4.7-0.9C302.5,93.6,303.5,94,303.4,95.5z"/>
	<path class="st11" d="M272,96.8c0,1.5-0.1,3-0.1,4.5c-0.9,0-1.6-0.2-2-1.1C270.6,99.1,271.3,97.9,272,96.8z"/>
	<path class="st11" d="M283.3,94.6c-0.6-0.3-1.3-0.5-1.9-0.8C282.2,93.6,283,93.5,283.3,94.6z"/>
	<path class="st11" d="M284.3,95.6c-0.3-0.3-0.7-0.6-1-1C283.6,94.9,284,95.3,284.3,95.6z"/>
	<path class="st11" d="M311.8,137.2c-3.1,0.6-6.1,1.3-9.2,1.9c-2.8,0.5-6.1-2.9-8.6,1c-0.1,0.1-1.3-0.6-2-0.9c4-3.1,0.4-5.1-1-7.5
		c2.8-0.9,3.4,2.7,5.7,2.9c1.4-0.2,2.7-0.5,4.1-0.7c0,1.3-0.1,3.7,1.4,3.1c2-0.7,4.2-2.6,4.8-4.4c0.6-1.8-1.9-1.5-3.4-1.5
		c-0.1-1-0.2-2-0.3-3.1c0.2-1.7-0.7-3.1-1.1-4.6c0.2-0.2,0.3-0.3,0.5-0.4c0.8,0.4,1.4,1.4,2.4,1.2c0.7,1.8,0.2,4.2,2.8,4.8
		c4.5,1.5,5.7,0.3,5.7-5.6c-0.3-1.6-0.6-3.2-1-4.9c2.1-0.1,2.5,1.9,3.8,2.8c1.3-0.2,2.7-0.4,4-0.6c-0.9,1.4-2.5,2.5-2.3,4.5
		c-0.9,0.8-0.7,2-0.9,3.1c-3,0.3-4.7,2-5.3,4.9C311.9,134.4,311.8,135.8,311.8,137.2z"/>
	<path class="st13" d="M317.3,128.2c0.2-1.1,0-2.2,0.9-3.1c0.3,0.4,0.6,1.1,0.8,1.1c2.7-0.7,3.9-3.1,5.9-4.7
		c-0.6-0.5-1.2-0.9-1.8-1.4c0-0.3,0-0.5-0.1-0.8l0,0c1.3,0,2.6,0.1,3.9,0.1l0,0c1,1.9,3.4,3.1,2.9,5.8c-1.8,0.5-2.7,2.2-3.8,3.4
		c-1.5,1.7-1,2.8,1.2,3.3c-4.8,2.7-10,4.3-15.4,5.4c0.1-1.4,0.2-2.8,0.2-4.1c0.6,0.5,1,2.2,1.9,1.4c1.6-1.4,3.1-2.8,4.8-4.2
		C320.1,129.2,317.7,129,317.3,128.2z"/>
	<path class="st11" d="M267.3,139.3c-2.6-0.9-5.5,1-8-0.8c0.2,0,0.4-0.1,0.6-0.3c4.9,0.6,5.2-3.3,6.3-6.5c-0.3-1.6-0.6-3.2-0.9-4.9
		c0.6,0.3,1.3,0.7,1.9,1c2.1,2.6,2.1,2.6,4.8-1.8c-0.3,4.3,0.1,8.1,5.6,8.5c3.1,2.7,4.1-2.8,6.8-1.8c-1.2,1.3-2.4,2.6-2.2,4.6
		c-0.6,0.7-1.3,1.4-1.9,2.1c-0.9,0-1.7,0.1-2.6,0.1C274.8,134.7,270.8,134.6,267.3,139.3z"/>
	<path class="st13" d="M238.6,115.5c0.1,2.1,2.5,3.5,1.9,5.8c-1.7,0.7-2.7,1.8-2.9,3.7c0,0,0,0,0,0c-0.3,0.3-0.6,0.6-1,1
		c0,0,0,0,0,0c-1.4-0.1-2.7,0.1-2.8,1.9c-0.7,0.1-1.4,0.1-2.2,0.2c0,0,0.1,0.1,0.1,0.1c-0.1-0.5-0.2-0.8-0.8-0.5
		c-2.4-2.3-5.2-4.4-2.9-8.3c0.3,0,0.6,0,1,0c0,1.2-0.1,2.8,1.2,3.2c1.2,0.4,1.9-1.2,2-2c0.2-1.9,5.5-0.7,2.5-4.2
		C235.9,115.1,237.4,115.7,238.6,115.5C238.7,115.6,238.6,115.5,238.6,115.5z"/>
	<path class="st13" d="M265.2,126.9c0.3,1.6,0.6,3.2,0.9,4.8c-3.2,1.1-5.5,3-6.4,6.5c-0.2,0.1-0.4,0.2-0.6,0.3
		c-0.6-0.1-1.1-0.2-1.7-0.3c-0.5-0.7-1.2-0.7-2-0.7c0,0,0,0.1,0,0.1c0-1.7-3.1-3-0.8-5c2.9-0.9,4.5-3.3,6.4-5.3
		c0.4-0.9,1.2-1.2,2.2-1.3l0,0C263.8,126.7,264.4,127,265.2,126.9L265.2,126.9z"/>
	<path class="st11" d="M329.8,125.2c0.6-2.7-1.9-3.9-2.9-5.8c0.6,0,1.3,0,1.9,0c4.8,0.9,6.5-0.8,6.6-6.4c-0.3-1.7-0.6-3.4-0.8-5.1
		c5.2,4.4,5.1,10-0.5,13.5c-1.6,1-2.7,1.4-2,3.8c0.9,2.8-0.5,4.9-3.4,5.7C329.1,128.9,330.2,127.2,329.8,125.2z"/>
	<path class="st13" d="M328.9,119.4c-0.6,0-1.3,0-1.9,0c0,0,0,0,0,0c-1-1.5-1.1-3.2-1-4.9c1.4-2.1,3.5-3.4,5.4-4.9
		c-0.9-1.4-2.1-1.6-3.4-1.6c1.2-1.3,2.9-0.8,4.4-0.9c0,0,0.2-0.1,0.2-0.1c0.5,0.8,1.3,1.1,2.2,1c0,0,0-0.1,0-0.1
		c0.3,1.7,0.6,3.4,0.8,5.1C333.3,115.1,331.1,117.2,328.9,119.4z"/>
	<path class="st13" d="M280.2,139.4c0.6-0.7,1.3-1.4,1.9-2c2.3,0.7,6-2.4,5.9-4.9c0.7-1,1.8-0.7,2.8-0.8l0,0c1.4,2.3,5,4.4,1,7.5
		C288,141.1,284.1,140.9,280.2,139.4z"/>
	<path class="st13" d="M242.5,125.7c3.1-1.7,4.1,1.1,5.4,2.7c1.3,1.5,0.9,2.7-1.2,3.3c-0.4,0.1-0.3,2-0.5,3c-3.3,0.6-6-0.8-8.5-2.8
		c1.8-1.3,3.6-2.6,5.3-4.1C244.1,126.9,243.2,126.3,242.5,125.7z"/>
	<path class="st11" d="M330.1,109.2c-1.5,0.1-3.1-0.4-4.4,0.9c-2.5,1.7-4.4,3.5-1.9,6.6c-0.1,1.7,0,3.4,1,4.9
		c-1.3,0-2.6-0.1-3.9-0.1c0-1.5,0-3,0.1-4.6c-0.3-1.6-0.6-3.2-1-4.8c6.4-5.9,6.4-5.9,2.9-10.4c0.2-0.2,0.3-0.4,0.4-0.6
		C327.6,102.1,326.9,107.3,330.1,109.2z"/>
	<path class="st13" d="M267.3,139.3c3.5-4.6,7.5-4.5,10.4,0.3C274.2,140.9,270.7,140.7,267.3,139.3z"/>
	<path class="st17" d="M242.5,125.7c0.8,0.6,1.6,1.2,0.5,2.1c-1.7,1.4-3.5,2.7-5.3,4.1c-0.4-0.4-0.7-0.7-1.1-1.1
		c0.1-0.9,0.3-1.7,0.4-2.6C238.5,126.7,240.1,125.4,242.5,125.7z"/>
	<path class="st6" d="M329.8,125.2c0.4,2-0.7,3.8-1,5.7c-0.6,0.3-1.1,0.7-1.7,1c-2.2-0.4-2.7-1.6-1.2-3.3
		C327.1,127.3,328,125.7,329.8,125.2z"/>
	<path class="st11" d="M315.1,102.4c0.9-1.7,2.8-1.4,4.1-2.3c1.4,0.3,2.8,0.7,4.1,1c-0.1,0.2-0.3,0.4-0.4,0.6c-1,0-2.1-0.2-2.8,0.8
		c-1.5-0.2-3-0.1-4.3,0.8C315.6,102.9,315.3,102.6,315.1,102.4z"/>
	<path class="st11" d="M237,128.2c-0.1,0.9-0.3,1.7-0.4,2.6c-2.5,0.6-3.6-1.1-4.8-2.7c0.7-0.1,1.4-0.1,2.2-0.2
		c0.9,0,1.8-0.1,2.7-0.1C236.8,127.9,236.9,128,237,128.2z"/>
	<path class="st11" d="M334.7,107.9c-0.9,0-1.7-0.2-2.2-1C333.4,106.8,334.2,107,334.7,107.9z"/>
	<path class="st11" d="M255.6,137.5c0.8,0,1.5,0,2,0.7C256.8,138.2,256,138.5,255.6,137.5z"/>
	<path class="st11" d="M229.1,119.4c-0.3,0-0.6,0-1,0c0.3-0.4,0.5-0.8,0.8-1.1c0.2,0.2,0.4,0.4,0.6,0.5
		C229.5,119,229.4,119.2,229.1,119.4z"/>
	<path class="st11" d="M231.1,127.7c0.6-0.4,0.7,0,0.8,0.5C231.5,128.1,231.3,128,231.1,127.7z"/>
	<path class="st13" d="M254.8,111.1c-1.3-1.1-1.5-1.3-4.7,1.7c-3,2.8-4.6,1.1-6.2-1.3c-0.5-0.8,0.2-1.4,0.8-1.9
		c2.3-0.9,3.3-3.4,5.5-4.5c1.5-0.8-0.5-1.5-1.2-2c3.5-1.4,5.2,0.7,6.2,3.5c0.6,1.6,0.9,3.2,2.3,4.3
		C256.7,110.9,255.8,111,254.8,111.1z"/>
	<path class="st13" d="M258.1,111c2.2-0.7,3.6,0.7,5.2,1.7c0,0,0,0,0,0c1.7,2.5-1.1,4.3-1,6.6c-1.7,1.4-0.8,3.1-0.5,4.7
		c-1.7-1.5-1.8-4.9-5.2-4.6l0,0c-0.3-0.3-0.6-0.6-1-1l0,0c-0.3-0.7-0.7-1.3-1-2c0.6-1.5,1.8-2.4,3.3-3.1
		C259.6,112.7,259,111.8,258.1,111z"/>
	<path class="st13" d="M250.1,128c-1-1.3-1.9-2.6-2.9-3.9c0.7-1.8,2.1-2.9,3.9-3.7c1.4-0.6,0.6-1.4,0-2.1c1.6-1.6,3.2,0.7,4.8,0.1
		c0,0,0,0,0,0c0.3,0.3,0.6,0.6,1,1c0,0,0,0,0,0c-0.1,1.3,0.4,2.8-0.9,3.9C253.6,124.4,252.8,127.4,250.1,128z"/>
	<path class="st18" d="M261.2,127.3c-1.9,2-3.5,4.4-6.4,5.3c-0.6-1.6-0.4-3.2,0.3-4.7c0.2-0.2,0.5-0.3,0.7-0.5
		c0.6-0.4,1.3-0.8,1.9-1.2c0.6,0,1.2,0,1.8,0C260.1,126.6,260.6,127,261.2,127.3z"/>
	<path class="st17" d="M249.1,103c0.7,0.6,2.6,1.3,1.2,2c-2.2,1.2-3.2,3.6-5.5,4.5C243,105.8,244,104.4,249.1,103z"/>
	<path class="st18" d="M258.1,111c0.8,0.8,1.5,1.7-0.1,2.4c-1.5,0.6-2.7,1.5-3.3,3.1c-3.6-1-3.6-1.4,0.1-5.4
		c0.9-0.1,1.9-0.2,2.8-0.3C257.8,111,257.9,111.1,258.1,111z"/>
	<path class="st17" d="M229.1,119.4c0.2-0.1,0.4-0.3,0.4-0.6c1.5-1.4,3.1-2.7,5.3-2.4c3,3.5-2.3,2.3-2.5,4.2c-0.1,0.7-0.8,2.3-2,2
		C229,122.1,229.1,120.6,229.1,119.4z"/>
	<path class="st13" d="M295.5,90.3c0.1,2.1,2.5,3.5,1.9,5.8c-1.7,0.7-2.7,1.8-2.9,3.7c0,0,0,0,0,0c-0.3,0.3-0.6,0.6-1,1c0,0,0,0,0,0
		c-1.4-0.1-2.7,0.1-2.8,1.9c-0.7,0.1-1.4,0.1-2.2,0.2c0,0,0.1,0.1,0.1,0.1c-0.1-0.5-0.2-0.8-0.8-0.5c-2.4-2.3-5.2-4.4-2.9-8.3
		c0.3,0,0.6,0,1,0c0,1.2-0.1,2.8,1.2,3.2c1.2,0.4,1.9-1.2,2-2c0.2-1.9,5.5-0.7,2.5-4.2C292.8,89.9,294.2,90.5,295.5,90.3
		C295.5,90.3,295.5,90.3,295.5,90.3z"/>
	<path class="st17" d="M286,94.1c0.2-0.1,0.4-0.3,0.4-0.6c1.5-1.4,3.1-2.7,5.3-2.4c3,3.5-2.3,2.3-2.5,4.2c-0.1,0.7-0.8,2.3-2,2
		C285.9,96.9,286,95.4,286,94.1z"/>
	<path class="st13" d="M241.3,111.6c0.5,0.6,1.1,1.1,1.5,1.7c0.9,1.2,2.4,2.7,1.2,4.1c-1.2,1.2-2.3-0.7-3.5-1.2
		c-0.5-0.3-1.2-0.4-1.8-0.6c0,0,0,0,0,0c0-0.7-0.1-1.3-0.1-2C239.1,112.4,240,111.8,241.3,111.6z"/>
	<path class="st17" d="M251,118.3c0.6,0.7,1.5,1.4,0,2.1c-1.7,0.8-3.1,1.9-3.9,3.7c-3.8-0.9-2.1-2.8-0.8-4.4
		C247.5,118.1,249.3,118,251,118.3z"/>
	<path class="st13" d="M250.8,140.5c0.3-1.6,2.2-1,2.6-2.6c1.8-0.6,3.6-0.3,5.3,0.4c1.4,0.6,1.4-0.5,1.5-1.4
		c2.3,0.1,1.6,2.8,3.1,3.6c0,0,0,0,0,0c0,0.5,0,0.9-0.1,1.4c0,0,0,0,0,0c-1.1,0.8-2.1,3.5-3.8,3.2
		C257.1,144.2,253.1,142.1,250.8,140.5z"/>
	<path class="st17" d="M260.2,136.9c-0.1,0.9-0.1,2-1.5,1.4c-1.7-0.8-3.5-1.1-5.3-0.4c-1.9-3.4,0.7-3.4,2.8-3.5
		C258.1,134.1,259.3,135.4,260.2,136.9z"/>
	<path class="st17" d="M241.2,111.6c-1.2,0.2-2.1,0.8-2.7,2c-1,0.5-2.2,2.3-2.8,0c-0.7-2.5,1.3-3.8,3.3-4.4
		C240.8,108.6,242.3,109.1,241.2,111.6z"/>
	<path class="st13" d="M247.7,133.3c0.5,0.6,1.1,1.1,1.5,1.7c0.9,1.2,2.4,2.7,1.2,4.1c-1.2,1.2-2.3-0.7-3.5-1.2
		c-0.5-0.3-1.2-0.4-1.8-0.6c0,0,0,0,0,0c0-0.7-0.1-1.3-0.1-2C245.5,134.2,246.5,133.5,247.7,133.3z"/>
	<path class="st17" d="M247.6,133.3c-1.2,0.2-2.1,0.8-2.7,2c-1,0.5-2.2,2.3-2.8,0c-0.7-2.5,1.3-3.8,3.3-4.4
		C247.2,130.3,248.8,130.8,247.6,133.3z"/>
	<path class="st19" d="M255.7,96.6c1.5-0.2,3-0.7,4.5,1.1c-1.7,1.5-4,2.5-5,4.8C251.3,100.2,254.8,98.5,255.7,96.6z"/>
	<path class="st6" d="M255.8,127.4c-0.2,0.2-0.5,0.3-0.7,0.5c-1.7-0.1-3.3,4.1-5,0c2.7-0.6,3.5-3.5,5.7-4.8
		C256.9,124.6,256.1,126,255.8,127.4z"/>
	<path class="st6" d="M237.7,125c0.2-1.9,1.2-3,2.9-3.7C240.7,123.4,240.1,124.9,237.7,125z"/>
	<path class="st6" d="M236.6,127.8c-0.9,0-1.8,0.1-2.7,0.1c0.1-1.8,1.4-2,2.8-1.9C236.7,126.6,236.7,127.2,236.6,127.8z"/>
	<path class="st6" d="M236.7,126c0.3-0.3,0.6-0.6,1-1C237.4,125.3,237,125.7,236.7,126z"/>
	<path class="st11" d="M262.4,119.3c-0.2-2.3,2.6-4.1,1-6.6c1,0.3,2,0.6,2.9,0.9c1.3,0.1,2.6,0.1,3.9,0.2c-0.1,1.5,0.1,2.9,1.7,3.7
		c0,0.3,0,0.6,0,0.9c-1.6,0.1-3.1-1.8-4.7-0.3C265.4,117.8,264,118.9,262.4,119.3z"/>
	<path class="st18" d="M263.4,108c-1.6-0.3-1.9-1.3-1.9-2.2c0.1-2.4,1.8-3.5,3.8-4.3c1.1-0.5,2.3,0.1,2.8,1.1
		c0.6,1.2-0.9,1.3-1.5,1.8C265.4,105.6,264.4,106.9,263.4,108z"/>
	<path class="st6" d="M270.2,113.8c-1.3-0.1-2.6-0.1-3.9-0.2c1.2-3.2,4-4.8,6.6-6.6c0,1,0,1.9,0,2.9c0,0,0,0,0,0
		c-1.5,0.9-3,1.8-2.8,3.9L270.2,113.8z"/>
	<path class="st13" d="M271.9,118.4c0-0.3,0-0.6,0-0.9c0.9-1.1,1.7-2.1,2.7-3.2c0.8-0.9,2.9-0.9,2.4-2.3c-0.6-1.6-2.5-1.5-4.1-0.9
		c0-0.4,0-0.8,0-1.2c0,0,0,0,0,0c2.7-0.3,5.4-1.4,8.2-1c0.1,0.3,0.2,0.6,0.3,0.9c-0.3,0.3-0.6,0.6-1,1c-0.3-0.2-0.7-0.5-1-0.7
		c-0.1,0.1-0.2,0.2-0.2,0.4c0.4,0.1,0.8,0.3,1.2,0.4c0.3,1.6,0.6,3.3,1,4.9c-1.3,0.4-1.8,1.3-1.9,2.6c0,0,0,0,0,0
		c-1.6,1-3.1,1.9-4.7,2.9C274.1,120,273.7,118.5,271.9,118.4L271.9,118.4z"/>
	<path class="st13" d="M287.1,104.1c0.7-1.1,2-0.8,3-1.4c0,0,0,0.1,0,0.1c0.6,2.2,2.7,3.6,2.7,6.1c-2.2,0.1-3.2,1.7-4.3,3.2
		c-1.1,1.4-2.7,2.8-4,2.3c-1.3-0.5-2.4-2.3-2.1-4.3c1.5-1.4,2.4-3.3,4.4-4C288.2,105.6,287.9,104.9,287.1,104.1z"/>
	<path class="st19" d="M287.1,104.1c0.8,0.8,1.2,1.5-0.3,2c-2.1,0.7-3,2.7-4.4,4c-0.3-0.1-0.6-0.2-0.9-0.3c-0.1-0.3-0.2-0.6-0.3-0.9
		C280.6,104.3,283.6,103.9,287.1,104.1z"/>
	<path class="st11" d="M292.8,108.9c0-2.4-2.2-3.9-2.7-6.1c0,0,0.3,0,0.3,0c1.3,0.4,2.8,0.2,3.4,2c0.7,2.3,2.6,2.3,4.6,2.1
		c1.5,1.8,2.3-0.9,3.5-0.5c-0.7,1.7-0.4,3,1.5,3.6c0.5,1.3,1,2.6,1.6,3.8c0.3,0.6,0.4,2,1.8,0.6c2.6-2.8,6.8-4.5,6.1-9.4l0.2-0.2
		c2.6,0,1.4-3.3,3.4-3.8c0.3,0.2,0.5,0.5,0.8,0.7c-0.2,1.1-0.5,2.2-0.7,3.3c-1.2,1.5-0.9,2.5,1.1,2.8c1,0.1,2.2-0.1,2.9,1
		c-1,0-2.1-0.2-2.9,0.8c-2.6-0.3-4.4,1-5.8,3c-1.5,1.4-0.7,3.2-0.9,4.8c-1.6,0.2-3.4-0.6-4.8,0.9c-1.4,1.3-3.6,2-3.5,4.5
		c-0.2,0.1-0.3,0.3-0.5,0.4c-1.5-0.2-2.9-2-4.6-0.3c-2.3-0.6-3.8,1-5.5,2.1c-0.4,0-0.7,0-1.1,0c0-0.3-0.1-0.7-0.1-1l0,0
		c0.8-0.4,1-1.1,1-1.8c1.7-1.6-0.6-3.2,0-4.8l0,0c1.3,0.6,2.2,2.1,3.8,2c0.2,1.7,1.3,1.9,2.7,1.4c2.8-1.1,4-3.3,3.9-6.2
		c-0.3-4.3-2.7-6.1-6.9-5.6c-0.6,0.2-1.3,0.4-1.9,0.6C293.2,109.3,293,109.1,292.8,108.9z"/>
	<path class="st11" d="M303.3,95.5c3.8,1,2.7,5.9,5.9,7.4c0,0-0.2,0.3-0.2,0.3c-1.3,0-2.6-0.1-3.9-0.1c0-0.6,0-1.2,0.1-1.7
		C304.5,99.4,303.9,97.5,303.3,95.5z"/>
	<path class="st6" d="M301.8,106.5c-1.3-0.4-2.1,2.3-3.5,0.5c0.7-1.1,1.6-1.9,3.1-1.8c0,0,0,0,0,0c0.1,0.4,0.3,0.8,0.4,1.3
		L301.8,106.5z"/>
	<path class="st6" d="M305.1,101.4c0,0.6,0,1.2-0.1,1.7c-0.3,0-0.6,0.1-0.8,0.1c-0.3,0-0.6,0-1,0l-0.1-0.1
		C303.1,101.8,303.9,101.3,305.1,101.4z"/>
	<path class="st6" d="M302.3,104.2c0.3-0.4,0.5-0.7,0.8-1.1c0,0,0.1,0.1,0.1,0.1c0.2,0.4,0.4,0.9,0.5,1.3l-0.2,0.1
		C303.1,104.5,302.7,104.3,302.3,104.2C302.3,104.2,302.3,104.2,302.3,104.2z"/>
	<path class="st6" d="M301.3,105.1c0.3-0.3,0.6-0.6,0.9-1c0,0,0,0,0,0C302,104.5,301.6,104.8,301.3,105.1
		C301.3,105.1,301.3,105.1,301.3,105.1z"/>
	<path class="st13" d="M291,125.1c0.4,0,0.7,0,1.1,0c-0.3,1.5-0.8,3.1,1,4.2c1.6-1.4,2.6-3.3,4.7-4.2c1.3-0.6,0.5-1.5-0.3-2.1
		c1.7-1.7,3.1,0.1,4.6,0.3c0.4,1.5,1.4,2.9,1.1,4.6c-1.8,0-2,1.3-2.1,2.7c-0.3,0.3-0.6,0.7-0.9,1c-1.7,0.4-3.5,0.7-3.7,2.9
		c-2.3-0.2-2.9-3.7-5.7-2.9c0,0,0,0,0,0c0-1.9,0-3.8,0-5.7C290.9,125.7,290.9,125.4,291,125.1z"/>
	<path class="st13" d="M310.8,117.5c0.2-1.6-0.6-3.4,0.9-4.8c0.2,1.2,1.2,3.6,1.4,3c1-2.5,5.8-2.1,4.4-6c0.8-1,1.8-0.8,2.9-0.8l0,0
		c0.4,0.8,1.1,1,1.9,1l0,0c0.3,1.6,0.6,3.2,1,4.8c-2.8,1.6-5,3.8-6.7,6.5c-1.3-0.9-1.7-3-3.8-2.8c0,0,0,0,0,0
		C312.3,117.7,311.6,117.5,310.8,117.5L310.8,117.5z"/>
	<path class="st13" d="M306.1,118.3c1.4-1.4,3.2-0.6,4.8-0.9c0,0,0,0,0,0c0.4,0.8,1.1,1,1.9,1c0,0,0,0,0,0c0.3,1.6,0.6,3.2,1,4.9
		c-1.9,1.9-3.8,3.7-5.7,5.6c-2.6-0.6-2.2-3-2.8-4.8c0.7-0.8,1.3-1.7,2.1-2.4c0.7-0.7,2.4-0.6,1.8-2.1
		C308.5,118.4,307.2,118.4,306.1,118.3z"/>
	<path class="st18" d="M317.3,128.2c0.4,0.8,2.8,1.1,1.4,2.1c-1.7,1.3-3.2,2.8-4.8,4.2c-0.9,0.8-1.3-0.9-1.9-1.4
		C312.6,130.2,314.3,128.5,317.3,128.2z"/>
	<path class="st13" d="M295.1,144.2c0.2-1.1,0-2.2,0.9-3.1c0.3,0.4,0.6,1.1,0.8,1.1c2.7-0.7,3.9-3.1,5.9-4.7
		c-0.6-0.5-1.2-0.9-1.8-1.4c0-0.3,0-0.5-0.1-0.8l0,0c1.3,0,2.6,0.1,3.9,0.1l0,0c1,1.9,3.4,3.1,2.9,5.8c-1.8,0.5-2.7,2.2-3.8,3.4
		c-1.5,1.7-1.7,2.9,0.5,3.3c-3.1,1.7-5.8,3-9.2,3.8c-1.2,0.3-2.4,0.6-3.6,0.8c-0.7,0.1-1.4,0.2-2.1,0.3c0.1-1.4,0.3-2.3,0.4-3.7
		c0.6,0.5,1,2.2,1.9,1.4c1.6-1.4,3.1-2.8,4.8-4.2C297.9,145.3,295.5,145.1,295.1,144.2z"/>
	<path class="st18" d="M295.1,144.2c0.4,0.8,2.8,1.1,1.4,2.1c-1.7,1.3-3.2,2.8-4.8,4.2c-0.9,0.8-1.3-0.9-1.9-1.4
		C290.4,146.2,292.1,144.5,295.1,144.2z"/>
	<path class="st17" d="M323.2,120.1c0.6,0.5,1.2,0.9,1.8,1.4c-2,1.6-3.2,4-5.9,4.7c-0.2,0-0.5-0.7-0.8-1.1c-0.2-2,1.4-3.1,2.3-4.5
		c0,0-0.1-0.1-0.1-0.1C321.3,120.4,322.3,120.2,323.2,120.1z"/>
	<path class="st18" d="M303.5,131c1.4,0,4-0.3,3.4,1.5c-0.6,1.9-2.9,3.7-4.8,4.4c-1.5,0.5-1.4-1.8-1.4-3.1c0,0-0.1-0.1-0.1-0.1
		C301.5,132.8,302.4,131.9,303.5,131L303.5,131z"/>
	<path class="st18" d="M306.1,118.3c1.1,0.1,2.4,0.1,2.9,1.2c0.6,1.5-1.1,1.5-1.8,2.1c-0.8,0.7-1.4,1.6-2.1,2.4
		c-1.1,0.2-1.7-0.8-2.4-1.2C302.4,120.3,304.6,119.6,306.1,118.3z"/>
	<path class="st6" d="M316.5,121.2c1.7-2.7,3.9-4.9,6.7-6.5c0,1.5,0,3-0.1,4.6c0,0,0,0,0,0c-1.1,0-2.2-0.2-2.7,1.2
		c0,0,0.1,0.1,0.1,0.1C319.2,120.8,317.8,121,316.5,121.2z"/>
	<path class="st6" d="M307.9,128.8c1.9-1.9,3.8-3.7,5.7-5.6C313.6,129.2,312.4,130.3,307.9,128.8z"/>
	<path class="st6" d="M296.6,134.5c0.3-2.2,2-2.5,3.7-2.9l0.1,0.1c0.1,0.7,0.1,1.4,0.2,2c0,0,0.1,0.1,0.1,0.1
		C299.3,134.1,297.9,134.3,296.6,134.5z"/>
	<path class="st6" d="M301.2,130.6c0.1-1.4,0.3-2.6,2.1-2.7c0.1,1,0.2,2,0.3,3.1c0,0-0.1-0.1-0.1-0.1c-0.7-0.1-1.4-0.1-2-0.2
		L301.2,130.6z"/>
	<path class="st11" d="M309.1,102.9c1.1,0,2.1,0.1,2.7,1.2l-0.1,0.1c-1,0-2.1,0.1-2.8-1L309.1,102.9z"/>
	<path class="st11" d="M311.8,104.1c0.4,0.3,0.7,0.5,1.1,0.8c0,0-0.2,0.2-0.2,0.2C312.4,104.8,312.1,104.5,311.8,104.1L311.8,104.1z
		"/>
	<path class="st11" d="M315.4,102.2c0.3-0.3,0.7-0.6,1-1c0.2,0.3,0.5,0.5,0.7,0.8c-0.3,0.3-0.6,0.6-0.9,0.8
		C316,102.7,315.7,102.4,315.4,102.2z"/>
	<path class="st11" d="M320.4,120.5c0.5-1.4,1.6-1.2,2.7-1.2c0.1,0.3,0.1,0.5,0.1,0.8C322.3,120.2,321.3,120.4,320.4,120.5z"/>
	<path class="st13" d="M277.6,134.6c-5.5-0.4-5.9-4.2-5.6-8.5c0.3-0.1,0.5-0.1,0.8-0.1c0.4,1.2-0.3,3,1.8,3.7c1.1-2.2,3.3-3.4,5.1-5
		c-1-1.8-2.5-1.6-3.9-1.4c0-0.4,0-0.7,0-1.1c0.3,0,0.6,0,0.9,0c1.1,0,2.2,0.2,2.9-0.9l0,0c0.4,0,0.8-0.1,1.1-0.1
		c0.3,0.3,0.5,0.6,0.8,1c0.5,1.3,1.4,2,2.8,2c0,0,0,0,0,0c0,1.3,0,2.7,0,4C281.5,129.7,279.5,132.1,277.6,134.6z"/>
	<path class="st13" d="M267.2,118.1c1.7-1.6,3.1,0.4,4.7,0.3c0,0,0,0,0,0c0.3,1.6,0.6,3.2,1,4.8c-2.8,0.5-3.2,3.9-5.7,4.7
		c-0.6-0.3-1.3-0.7-1.9-1c0,0,0,0,0,0c-0.4-0.8-1.1-0.9-1.9-1c0,0,0,0,0,0c0-0.5,0-1,0-1.5c1-1.6,2.1-3.1,3.9-4
		C269,119.7,268.2,118.9,267.2,118.1z"/>
	<path class="st6" d="M277.6,134.6c1.9-2.5,4-4.8,6.7-6.5c0,1.6,0.1,3.1,0.1,4.7l0.1,0C281.7,131.8,280.7,137.3,277.6,134.6z"/>
	<path class="st19" d="M288.1,132.5c0.1,2.5-3.6,5.6-5.9,4.9c-0.2-2,1.1-3.3,2.2-4.6c0,0-0.1,0-0.1,0
		C285.6,132.7,286.8,132.6,288.1,132.5z"/>
	<path class="st13" d="M262.2,146.4c0.6-0.7,1.4-1.1,2-1.8c2.3,0.7,6-2.4,5.9-4.9c0.7-1,1.8-0.7,2.8-0.8l0,0c1.4,2.3,5,4.4,1,7.5
		C270.2,148.3,266.2,147.9,262.2,146.4z"/>
	<path class="st19" d="M270.2,139.7c0.1,2.5-3.6,5.6-5.9,4.9c-0.2-2,1.1-3.3,2.2-4.6c0,0-0.1,0-0.1,0
		C267.7,139.9,269,139.8,270.2,139.7z"/>
	<path class="st6" d="M259.8,138.2c0.8-3.4,3.1-5.4,6.4-6.5C265,134.9,264.7,138.9,259.8,138.2z"/>
	<path class="st6" d="M267.1,127.9c2.5-0.8,3-4.2,5.7-4.7c0.3,0.3,0.7,0.7,1,1c-0.4,0.6-0.8,1.2-1.1,1.8c-0.3,0-0.5,0-0.8,0.1
		C269.3,130.5,269.3,130.5,267.1,127.9z"/>
	<path class="st11" d="M263.4,124.5c0,0.5,0,1,0,1.5c-0.9,0.1-1.7,0.4-2.2,1.3c-0.6-0.3-1.1-0.7-1.7-1c-0.6-1.2-1.2-1.2-1.8,0
		c-0.6,0.4-1.3,0.8-1.9,1.2c0.3-1.4,1.1-2.8,0-4.2c1.3-1.1,0.8-2.5,0.9-3.9c3.4-0.3,3.5,3.1,5.2,4.6
		C262.4,124.1,262.9,124.3,263.4,124.5z"/>
	<path class="st11" d="M263.3,126c0.8,0,1.5,0.2,1.9,1C264.4,127,263.8,126.7,263.3,126z"/>
	<path class="st6" d="M328.9,119.4c2.2-2.2,4.4-4.3,6.6-6.5C335.4,118.6,333.7,120.3,328.9,119.4z"/>
	<path class="st18" d="M326,114.4c-2.5-3.1-0.6-4.9,1.9-6.6c1.3,0,2.5,0.2,3.4,1.6C329.5,111,327.3,112.3,326,114.4z"/>
	<path class="st11" d="M288.1,132.5c-1.3,0.1-2.5,0.2-3.8,0.3c0-1.6-0.1-3.1-0.1-4.7c0-1.3,0-2.7,0-4c0.9,0.9,1.8,1.9,2.8,2.8
		c2.5,4.7,2.6-0.5,3.9-1c0,1.9,0,3.8,0,5.7C289.9,131.7,288.8,131.5,288.1,132.5z"/>
	<path class="st13" d="M318.2,111.2c-0.7-1-1.9-0.8-2.9-1c-2-0.3-2.3-1.3-1.1-2.8c2.3,0.6,6-2.5,5.9-4.9c0.8-0.9,1.8-0.7,2.8-0.8
		c3.5,4.5,3.5,4.5-2.9,10.4c0,0,0,0,0,0C319.7,111.3,319,111.1,318.2,111.2L318.2,111.2z"/>
	<path class="st19" d="M320.1,102.4c0.1,2.4-3.6,5.5-5.9,4.9c0.2-1.1,0.5-2.2,0.7-3.3c0.3-0.3,0.6-0.6,0.9-0.8
		C317.1,102.3,318.6,102.2,320.1,102.4z"/>
	<path class="st18" d="M263.4,124.5c-0.5-0.2-1-0.3-1.5-0.5c-0.3-1.6-1.2-3.3,0.5-4.7c1.6-0.4,3-1.5,4.8-1.1
		c1.1,0.7,1.8,1.5,0.1,2.4C265.5,121.4,264.4,122.8,263.4,124.5z"/>
	<path class="st13" d="M305.1,138.4c1.7-1.6,3.1,0.4,4.7,0.3c0,0,0,0,0,0c0.3,1.6,0.6,3.2,1,4.8c-0.9,0.2-1,1.1-1.6,1.6
		c-0.7,0.5-1.5,0.9-2.3,1.3c-0.7,0.4-1.4,1-2.3,1.3c-0.6-0.3-0.8-0.1-1.5-0.5c0,0,0,0,0,0c-0.4-0.8-1.1-0.9-1.9-1c0,0,0,0,0,0
		c0-0.5,0-1,0-1.5c1-1.6,2.1-3.1,3.9-4C307,140,306.2,139.2,305.1,138.4z"/>
	<path class="st18" d="M301.3,144.8c-0.5-0.2-1-0.3-1.5-0.5c-0.3-1.6-1.2-3.3,0.5-4.7c1.6-0.4,3-1.5,4.8-1.1
		c1.1,0.7,1.8,1.5,0.1,2.4C303.5,141.7,302.4,143.2,301.3,144.8z"/>
	<path class="st11" d="M256.7,119.4c-0.3-0.3-0.6-0.6-1-1C256.1,118.7,256.4,119,256.7,119.4z"/>
	<path class="st13" d="M257.7,126.2c0.6-1.2,1.2-1.2,1.8,0C258.9,126.3,258.3,126.3,257.7,126.2z"/>
	<path class="st18" d="M272.9,111.1c1.6-0.5,3.4-0.7,4.1,0.9c0.5,1.4-1.6,1.4-2.4,2.3c-0.9,1-1.8,2.1-2.7,3.2
		c-1.6-0.8-1.8-2.1-1.7-3.7c0,0-0.1-0.1-0.1-0.1C271,112.9,271.9,112,272.9,111.1z"/>
	<path class="st11" d="M272.9,111.1c-0.9,0.9-1.9,1.8-2.8,2.6c-0.2-2.1,1.3-3,2.8-3.9C272.9,110.3,272.9,110.7,272.9,111.1z"/>
	<path class="st11" d="M280.6,121.2c-0.4,0-0.8,0.1-1.1,0.1c0-1,0-1.9,0-2.9c0,0,0,0,0,0c1.8,0,2-1.3,1.9-2.6
		c-0.3-1.6-0.6-3.3-1-4.9l0,0c0.3-0.3,0.6-0.6,1-1c0.3,0.1,0.6,0.2,0.9,0.3c-0.3,1.9,0.8,3.8,2.1,4.3c1.3,0.4,2.9-1,4-2.3
		c1.1-1.5,2.2-3.1,4.3-3.2c0.2,0.2,0.4,0.4,0.7,0.7c-1.9,1.7-4,3.3-1.6,6.2c0,0.6,0,1.1,0,1.7c0,0,0,0,0,0c-1.3,0.2-2.9-1.8-4.1,0.3
		C284.1,116.3,282.1,118.1,280.6,121.2z"/>
	<path class="st11" d="M273.8,124.2c-0.3-0.3-0.7-0.7-1-1c-0.3-1.6-0.6-3.2-1-4.8c1.9,0.1,2.2,1.7,2.9,2.9c0.3,0.3,0.6,0.6,0.9,0.9
		c0,0.4,0,0.7,0,1.1C275.3,124.1,274.5,124,273.8,124.2z"/>
	<path class="st6" d="M275.7,122.2c-0.3-0.3-0.6-0.6-0.9-0.9c1.6-1,3.1-1.9,4.7-2.9c0,1,0,1.9,0,2.9c0,0,0,0,0,0
		c-1.1,0-2.1-0.1-2.9,0.9C276.3,122.1,276,122.2,275.7,122.2z"/>
	<path class="st6" d="M281.4,115.8c0,1.4-0.1,2.6-1.9,2.6C279.5,117.1,280,116.1,281.4,115.8z"/>
	<path class="st11" d="M280.4,110.8c-0.4-0.1-0.8-0.3-1.2-0.4c0.1-0.1,0.2-0.2,0.2-0.4C279.8,110.3,280.1,110.6,280.4,110.8
		C280.4,110.8,280.4,110.8,280.4,110.8z"/>
	<path class="st13" d="M311.8,104.2c0.3,0.3,0.6,0.6,1,0.9c0.7,4.9-3.4,6.7-6.1,9.4c-1.4,1.4-1.5,0-1.8-0.6
		c-0.6-1.2-1.1-2.5-1.6-3.8c0.8-0.9,1.6-1.9,2.5-2.7c0.7-0.7,2.5-0.8,2.1-2.1c-0.6-1.6-2.3-1.1-3.7-1.1c0-0.3,0-0.7,0-1
		c0.3,0,0.6-0.1,0.8-0.1c1.3,0,2.6,0.1,3.9,0.1C309.6,104.2,310.7,104.2,311.8,104.2z"/>
	<path class="st13" d="M291.8,117.4c0-0.6,0-1.1,0-1.7c1.3-1.2,2.5-2.8,4-3.6c3.4-1.8,0.3-2.2-0.5-3.1c4.2-0.4,6.6,1.3,6.9,5.6
		c-3.1,0.3-3.6,4.3-6.6,4.8C294,119.5,293.2,118,291.8,117.4z"/>
	<path class="st13" d="M287.7,117.8c1.2-2.1,2.7-0.1,4.1-0.3c-0.6,1.6,1.7,3.2,0,4.8c-0.8,0.3-1,1-1,1.8c0,0,0,0,0,0
		c-1.3,0.9-2.6,1.9-3.9,2.8c-0.9-0.9-1.8-1.9-2.8-2.8c0,0,0,0,0,0c-0.1-0.7-0.1-1.4-0.2-2.1C284.4,119.8,288,120.5,287.7,117.8z"/>
	<path class="st17" d="M317.5,109.7c1.5,3.9-3.4,3.6-4.4,6c-0.2,0.5-1.2-1.8-1.4-3C313.1,110.7,314.9,109.4,317.5,109.7z"/>
	<path class="st13" d="M306.6,139.3c0.2-1.6-0.6-3.4,0.9-4.8c0.2,1.2,1.2,3.6,1.4,3c1-2.5,5.8-2.1,4.4-6c0.8-1,1.8-0.8,2.9-0.8l0,0
		c0.4,0.8,1.1,1,1.9,1l0,0c0.3,1.6,0.6,3.2,1,4.8c-2.8,1.6-5,3.8-6.7,6.5c-1.3-0.9-1.7-3-3.8-2.8c0,0,0,0,0,0
		C308.1,139.5,307.4,139.3,306.6,139.3L306.6,139.3z"/>
	<path class="st17" d="M313.3,131.5c1.5,3.9-3.4,3.6-4.4,6c-0.2,0.5-1.2-1.8-1.4-3C308.9,132.5,310.7,131.2,313.3,131.5z"/>
	<path class="st17" d="M297.5,123c0.8,0.6,1.6,1.5,0.3,2.1c-2.1,0.9-3.1,2.9-4.7,4.2c-1.8-1.1-1.3-2.7-1-4.2
		C293.7,123.9,295.2,122.4,297.5,123z"/>
	<path class="st17" d="M295.4,109c0.7,0.9,3.9,1.4,0.5,3.1c-1.5,0.8-2.7,2.4-4,3.6c-2.4-2.8-0.3-4.5,1.6-6.2
		C294.1,109.4,294.7,109.2,295.4,109z"/>
	<path class="st19" d="M304.2,104.2c1.4-0.1,3.1-0.6,3.7,1.1c0.4,1.2-1.4,1.4-2.1,2.1c-0.9,0.9-1.7,1.8-2.5,2.7
		c-1.8-0.7-2.1-2-1.5-3.6c0,0-0.1-0.1-0.1-0.1c0.9-0.2,1.5-0.8,1.8-1.6c0,0,0.2-0.1,0.2-0.1C304,104.6,304.1,104.5,304.2,104.2z"/>
	<path class="st6" d="M295.6,119.4c3-0.5,3.5-4.5,6.6-4.8c0,2.9-1.1,5.1-3.9,6.2C296.9,121.4,295.9,121.2,295.6,119.4z"/>
	<path class="st6" d="M287,126.9c1.3-0.9,2.6-1.9,3.9-2.8c0,0.3,0.1,0.7,0.1,1c-0.1,0.3-0.1,0.6-0.1,0.9
		C289.6,126.4,289.5,131.6,287,126.9z"/>
	<path class="st6" d="M290.9,124.1c0-0.8,0.2-1.5,1-1.8C291.8,123,291.6,123.7,290.9,124.1z"/>
	<path class="st11" d="M303.6,104.7c-0.4,0.8-0.9,1.4-1.8,1.6c-0.1-0.4-0.3-0.8-0.4-1.3c0.3-0.3,0.6-0.6,1-1
		C302.7,104.3,303.1,104.5,303.6,104.7z"/>
	<path class="st11" d="M304.2,104.2c0,0.3-0.1,0.4-0.4,0.3c-0.2-0.4-0.4-0.9-0.5-1.3c0.3,0,0.6,0,1,0
		C304.2,103.6,304.2,103.9,304.2,104.2z"/>
	<path class="st6" d="M300.3,131.6c0.3-0.3,0.6-0.7,0.9-1c0,0,0.2,0.2,0.2,0.2C301,131.1,300.7,131.4,300.3,131.6L300.3,131.6z"/>
	<path class="st11" d="M312.7,118.4c-0.8,0-1.5-0.2-1.9-1C311.6,117.5,312.3,117.7,312.7,118.4z"/>
	<path class="st11" d="M320.3,108.9c0.8,0,1.5,0.2,1.9,1C321.4,109.9,320.7,109.7,320.3,108.9z"/>
	<path class="st11" d="M300.4,131.7c0.3-0.3,0.6-0.6,1-0.9c0.7,0.1,1.4,0.1,2,0.2c-0.9,0.9-1.9,1.9-2.8,2.8
		C300.5,133.1,300.4,132.4,300.4,131.7z"/>
	<path class="st19" d="M273.8,124.2c0.7-0.2,1.5-0.1,1.9-0.9c1.4-0.2,2.9-0.3,3.9,1.4c-1.8,1.5-4,2.8-5.1,5
		c-2.1-0.7-1.4-2.4-1.8-3.7C273.1,125.4,273.5,124.8,273.8,124.2z"/>
	<path class="st13" d="M281.9,153c-5.5-0.4-6-4.1-5.7-8.4c0.3-0.1,0.5-0.1,0.8-0.1c0.4,1.2-0.3,3,1.8,3.7c1.1-2.2,3.3-3.4,5.1-5
		c-1-1.8-2.5-1.6-3.9-1.4c0-0.4,0-0.7,0-1.1c0.3,0,0.6,0,0.9,0c1.1,0,2.2,0.2,2.9-0.9l0,0c0.4,0,0.8-0.1,1.1-0.1
		c0.3,0.3,0.5,0.6,0.8,1c0.5,1.3,1.4,2,2.8,2c0,0,0,0,0,0c0,1.3,0,2.7,0,4C285.8,148.3,283.8,150.5,281.9,153z"/>
	<path class="st19" d="M278.2,142.8c0.7-0.2,1.5-0.1,1.9-0.9c1.4-0.2,2.9-0.3,3.9,1.4c-1.8,1.5-4,2.8-5.1,5
		c-2.1-0.7-1.4-2.4-1.8-3.7C277.4,144,277.8,143.4,278.2,142.8z"/>
	<path class="st18" d="M287.7,117.8c0.2,2.7-3.4,2-3.7,4.2c-0.9,0-1.8,0.1-2.7,0.1c-0.3-0.3-0.5-0.6-0.8-1
		C282.1,118.1,284.1,116.3,287.7,117.8z"/>
	<path class="st11" d="M281.4,122.1c0.9,0,1.8-0.1,2.7-0.1c0.1,0.7,0.1,1.4,0.2,2.1C282.8,124.1,281.9,123.5,281.4,122.1z"/>
	<path class="st11" d="M276.6,122.1c0.8-1,1.9-0.9,2.9-0.9C278.8,122.4,277.7,122.2,276.6,122.1z"/>
</g>
</svg>
