<?xml version="1.0" encoding="UTF-8"?>
<svg id="Calque_2_Image" data-name="Calque 2 Image" xmlns="http://www.w3.org/2000/svg" viewBox="0 0 423.35 328.73">
  <defs>
    <style>
      .cls-1 {
        fill: #13171a;
      }

      .cls-1, .cls-2 {
        stroke-width: 0px;
      }

      .cls-2 {
        fill: #15191b;
      }
    </style>
  </defs>
  <path class="cls-2" d="M346.12,0c4.31,2.25,8.27,4.75,9.17,10.16.71,4.28-.17,7.95-3.5,10.79-6.72,5.73-13.53,11.35-20.27,17.06-1.18,1-1.65,1.01-2.28-.58-2.54-6.41-7.1-11.05-13.29-13.96-2.32-1.09-.94-1.65,0-2.47,7.65-6.73,14.55-14.32,23.11-20,.23-.15.22-.66.33-1.01,2.25,0,4.49,0,6.74,0Z"/>
  <path class="cls-1" d="M268.53,65.49c8.68-7.84,17.4-15.63,26-23.55,1.71-1.57,3.2-1.87,5.36-1.19,3.07.96,5.72,2.45,7.67,4.97,4.13,5.37,3.88,8.24-1.17,12.51-6.08,5.14-12.25,10.18-18.38,15.27-.53.44-1.01.95-2.13,2.01,10.67-.83,19.17,3.05,27.33,7.96,2,1.21,3.56,1.19,5.55-.45,11.34-9.33,22.92-18.36,34.2-27.76,2.54-2.12,4.94-2.22,7.53-1.26,6.1,2.26,10.21,6.38,11.42,13.06.31,1.7-.05,2.65-1.35,3.82-9.34,8.43-19.3,16.11-28.92,24.19-.45.38-.91.76-1.57,1.3,3.7,2.15,7.45,3.77,10.31,6.81,4.02,4.28,6.22,9.19,6.2,15.09-.05,12.84-.1,25.68-.02,38.52.01,1.91-.48,3.4-1.85,4.54-4.39,3.62-8.84,7.16-13.27,10.74-1.15-1-.66-2.05-.66-2.96-.04-14.83-.19-29.67,0-44.5.09-7.31-2.95-12.43-9.29-15.73-10.81-5.62-21.55-11.38-32.5-16.71-11.37-5.53-22.74-4.61-33.56,1.64-9.79,5.66-19.45,11.54-28.99,17.61-9.9,6.29-9.42,15.86.89,21.48,9.59,5.24,19.12,10.62,28.87,15.56,13.33,6.75,26.65,6.11,39.55-1.34,7.97-4.6,15.78-9.49,23.64-14.28,2.4-1.46,3.53-1.73,3.47,1.93-.21,13.58-.16,27.17-.07,40.76.02,3.24-.97,5.35-3.67,7.45-16.31,12.66-32.41,25.58-48.57,38.41-.68.54-1.37,1.08-2.07,1.59-1.85,1.35-2.56.9-2.54-1.4.07-8.85-.29-17.72.15-26.55.34-6.8-2.65-11.55-7.7-16.12-.66,6.69-.48,12.98-.5,19.27-.04,10.1-.16,20.19-.04,30.29.03,2.9-.92,4.66-3.29,6.44-12.62,9.49-25.25,18.93-38.57,27.46-16.39,10.5-33.12,10.9-50.25,2.2-12.09-6.14-23.99-12.64-36.13-18.67-9.03-4.48-13.1-11.05-12.69-21.44.65-16.68.38-33.4.12-50.1-.17-10.59,4.22-18.22,13.49-22.99,2.81-1.45,4.33-3.05,3.66-6.28-.35-1.69.43-2.69,1.97-3.52,4.59-2.48,9.08-5.14,13.61-7.74,9.86-5.65,10.29-16.07.52-21.85-8.34-4.93-17.05-9.25-25.72-13.6-2.99-1.5-4.49-3.15-4.21-6.74.35-4.58.01-9.21-.07-13.82-.01-.85.09-1.99-.39-2.5-4.69-4.98-1.6-9.7.6-14.23,1.89-3.9,5.4-6.48,9.05-8.69,11.26-6.83,22.52-13.65,33.85-20.36,15.73-9.32,31.51-9.04,47.4-.22,10.74,5.96,21.59,11.73,32.47,17.43,9.34,4.9,11.41,6.94,15.25,16.26ZM197.46,105.38c6.48,0,11.77-.41,16.4-3.05,11-6.27,21.97-12.63,32.72-19.32,5.98-3.72,7.27-11.25,3.47-16.6-1.64-2.3-4.09-3.6-6.49-4.9-10.47-5.69-21.02-11.23-31.44-17.01-10.5-5.83-20.77-5.76-31.03.53-9.84,6.03-19.8,11.88-29.58,17.99-10.33,6.46-9.96,16.83.74,22.69,9.15,5.01,18.47,9.71,27.54,14.85,5.93,3.36,12.19,4.79,17.68,4.82ZM198.67,138.96c-7.09,0-12.29,1.05-17,3.88-10.55,6.33-21.09,12.67-31.58,19.09-2.81,1.72-4.94,4.12-5.95,7.39-1.93,6.27.89,12.12,8.12,16.14,9.34,5.19,18.61,10.54,28.19,15.26,12.54,6.18,25.19,5.94,37.42-1.17,8.92-5.18,17.76-10.5,26.59-15.82,10.93-6.58,10.81-18.13-.41-24.4-10.31-5.76-20.82-11.14-31.23-16.73-4.95-2.66-10.26-3.62-14.15-3.65Z"/>
  <path class="cls-2" d="M399.26,141.14c2.91-2.39,5.76-4.88,8.76-7.16,4.83-3.68,10.29-3.15,13.51,1.18,3.16,4.25,2.1,9.87-2.38,13.51-35.82,29.1-71.74,58.07-107.33,87.46-10.27,8.48-18.36,19.26-27.32,29.11-18.33,20.15-36.56,40.4-54.85,60.58-2.98,3.29-5.84,3.76-8.46,1.62-2.88-2.34-3.16-5.82-.41-9.24,4.57-5.68,9.32-11.22,14.01-16.8.67-.79,1.47-1.5,1.67-3.39-6.72,5.66-12.94,10.92-19.19,16.14-2.36,1.97-4.92,3.67-8,1.51-3.22-2.26-3.43-6.35-.24-9.27,7.53-6.89,15.16-13.67,22.86-20.36,20.6-17.89,41.38-35.58,61.87-53.6,9.75-8.58,17.45-19.13,25.97-28.88,23.6-27.02,47.04-54.17,70.56-81.26.98-1.13,2.02-2.2,3.1-3.23,3.91-3.72,9.49-3.91,13.13-.49,3.83,3.6,3.97,9.72.23,13.77-2.58,2.79-4.98,5.76-8.06,8.09l.59.72Z"/>
  <path class="cls-1" d="M126.22,152.55c-.43.89-.59,1.51-.96,1.93-4.8,5.43-6.46,11.95-6.48,18.98-.05,14.46-.1,28.92.04,43.38.03,2.88-.42,3.94-3.7,4.13-9.7.54-18.83-1.05-27.46-5.52-12.59-6.52-25.21-13-37.77-19.58-5.78-3.03-8.85-7.89-8.85-14.47-.02-19.2.01-38.39.02-57.59,0-8.03,3.56-14.22,10.25-18.38,13.61-8.46,27.01-17.28,41.09-24.96,8.64-4.71,17.91-5.61,27.52-3.74,1.56.3,2.43.68,2.36,2.52-.15,3.86-.14,7.73-.08,11.59.04,2.04-.6,2.04-2.44,1.62-9.5-2.16-18.46-.83-26.82,4.43-8.41,5.29-16.95,10.35-25.42,15.54-1.37.84-2.73,1.75-3.97,2.78-6.74,5.59-6.63,14.12.49,19.31,6.44,4.69,13.86,7.75,20.81,11.6,5.09,2.82,10.01,6.02,15.88,7.21,8.43,1.71,16.79,1.22,25.49-.76Z"/>
  <path class="cls-2" d="M208.3,284.5c-3.31,2.31-7.03,4.21-9.85,7.01-7.62,7.55-16.21,7.39-25.98,5.38-23.26-4.77-45.54-12.26-66.9-22.46-29.06-13.88-57.3-29.37-85.66-44.6-5.19-2.79-9.91-6.26-13.53-10.99-9.44-12.35-8.31-29.66,2.74-40.9,5.91-6.01,13.07-10.28,20.46-14.2,2.44-1.3,2.95-.6,2.83,1.9-.19,4.1-.23,8.22-.13,12.33.05,2.01-.64,3.18-2.43,4.11-2.08,1.07-4.11,2.33-5.95,3.79-9.94,7.88-9.23,19.25,1.74,25.57,7.1,4.09,14.4,7.83,21.69,11.57,25.74,13.22,51.07,27.22,77.15,39.8,20.27,9.77,41.44,16.63,63.61,20.28,6.54,1.08,13.23,1.53,20.19,1.41Z"/>
  <path class="cls-2" d="M280.87,276.31c7.72-6.42,15.45-12.82,23.15-19.25,16.91-14.1,34.06-27.89,51.59-41.21,3.86-2.93,7.93-5.6,11.68-8.67,6.58-5.39,11.57-12.43,18.3-17.72,2.43-1.91,3.19-2.43,4.13,1.1,3.38,12.7-.39,25.21-12.02,33.14-29.94,20.42-60.63,39.62-94.62,52.86-.55.21-1.16.27-1.74.4-.16-.21-.32-.43-.47-.64Z"/>
  <path class="cls-2" d="M362.47,47.47c7.2-6.98,14.72-13.07,22.34-19,4.9-3.81,12.16-1.95,16.11,3.33,3.94,5.27,3.25,11.63-1.83,15.89-6.18,5.19-12.46,10.25-18.61,15.47-1.49,1.27-2.02,1.25-2.76-.66-2.72-7.1-7.92-11.83-15.26-15.04Z"/>
  <path class="cls-2" d="M111.63,109.83c4.85.12,9.38.8,13.5,3.04,3.67,1.99,6.18,4.86,6.37,9.36.2,4.53-2.45,7.21-5.91,9.16-8.86,4.99-18.02,4.99-27.18.87-4.12-1.85-6.83-4.93-6.87-9.77-.04-5.1,3.14-7.85,7.27-9.86,4.1-2,8.49-2.74,12.81-2.8Z"/>
  <path class="cls-2" d="M284.96,132.57c-5.07.1-9.51-.88-13.65-3.06-4.03-2.12-6.48-5.23-6.32-10.08.17-4.93,3.15-7.87,7.2-9.52,7.86-3.2,16.05-3.38,24.07-.62,4.69,1.61,8.24,4.89,8.55,10.22.31,5.17-3.13,8.07-7.31,10.27-4.06,2.14-8.38,3.02-12.55,2.8Z"/>
  <path class="cls-2" d="M302.12,34.12c4.87-5.79,6.62-6.46,11.44-4.37,5.55,2.4,10.57,9.23,9.65,13.84-.56,2.81-3.58,3.9-5.62,5.61-.57.48-.96-.36-1.27-.93q-5.54-9.93-14.2-14.15Z"/>
  <path class="cls-2" d="M183.83,70.12c.07,3.48-2.51,6.23-5.91,6.32-3.27.08-6.03-2.55-5.99-5.72.04-3.59,2.44-5.98,6.1-6.05,3.1-.06,5.75,2.42,5.81,5.45Z"/>
  <path class="cls-2" d="M209.76,70.32c-.03-3.59,2.23-6.07,5.53-6.09,3.3-.01,5.94,2.57,5.94,5.8,0,3.46-2.71,6.18-6.12,6.16-3.09-.02-5.33-2.48-5.36-5.88Z"/>
  <path class="cls-2" d="M197.18,76.14c3.28.06,5.95,2.8,5.83,5.98-.13,3.29-2.8,5.78-6.14,5.72-3.47-.06-5.78-2.52-5.64-6.01.15-3.64,2.37-5.76,5.95-5.69Z"/>
  <path class="cls-2" d="M196.68,66.36c-3.27-.06-5.69-2.67-5.6-6.05.08-3.33,2.62-5.83,5.87-5.79,3.3.04,5.7,2.62,5.62,6.02-.07,3.2-2.78,5.88-5.89,5.82Z"/>
  <path class="cls-2" d="M196.54,184.23c-4.55.04-9.38-.94-13.62-3.91-6.56-4.59-6.58-12.84-.08-17.53,7.34-5.3,22.32-5.42,29.83-.24,6.68,4.6,6.58,13.17-.29,17.68-4.62,3.03-9.81,4.16-15.84,4Z"/>
</svg>